<?xml version="1.0" encoding="UTF-8"?>
<svg version="1.1" xmlns="http://www.w3.org/2000/svg" width="192" height="192">
<path d="M0 0 C63.36 0 126.72 0 192 0 C192 63.36 192 126.72 192 192 C128.64 192 65.28 192 0 192 C0 128.64 0 65.28 0 0 Z " fill="#EA092F" transform="translate(0,0)"/>
<path d="M0 0 C63.36 0 126.72 0 192 0 C192 63.36 192 126.72 192 192 C128.64 192 65.28 192 0 192 C0 128.64 0 65.28 0 0 Z M15 11 C15 67.43 15 123.86 15 182 C68.46 182 121.92 182 177 182 C177 125.57 177 69.14 177 11 C123.54 11 70.08 11 15 11 Z " fill="#FDFCFB" transform="translate(0,0)"/>
<path d="M0 0 C7.95256917 0 7.95256917 0 11.1875 1.6875 C11.82042969 2.00074219 12.45335937 2.31398438 13.10546875 2.63671875 C16.3726558 4.98774614 18.6929067 7.14787261 19.37760925 11.27742004 C19.52985263 14.14129832 19.55420505 16.97977371 19.53125 19.84765625 C19.5350769 20.89650497 19.53890381 21.9453537 19.54284668 23.02598572 C19.54556416 25.23909467 19.53821454 27.45223582 19.52148438 29.6652832 C19.50005202 33.05427492 19.52130376 36.44115177 19.546875 39.83007812 C19.54423212 41.98177551 19.53910796 44.13347159 19.53125 46.28515625 C19.53934692 47.29876724 19.54744385 48.31237823 19.55578613 49.35670471 C19.46245633 56.34835147 19.46245633 56.34835147 17.13867188 59.62280273 C14.73678244 61.16949889 12.82596659 61.68600371 10 62 C10 62.66 10 63.32 10 64 C19.24 64 28.48 64 38 64 C38 63.34 38 62.68 38 62 C37.21625 61.896875 36.4325 61.79375 35.625 61.6875 C33 61 33 61 31 58 C30.77294922 55.27270508 30.77294922 55.27270508 30.8046875 52.01953125 C30.81113281 50.85615234 30.81757812 49.69277344 30.82421875 48.49414062 C30.84935547 46.67172852 30.84935547 46.67172852 30.875 44.8125 C30.88402344 43.58595703 30.89304687 42.35941406 30.90234375 41.09570312 C30.92593896 38.06371915 30.96181033 35.03183527 31 32 C38.26 32 45.52 32 53 32 C53.08057875 36.45869066 53.14030229 40.91594056 53.1875 45.375 C53.21263672 46.64601562 53.23777344 47.91703125 53.26367188 49.2265625 C53.27333984 50.43828125 53.28300781 51.65 53.29296875 52.8984375 C53.3086792 54.01911621 53.32438965 55.13979492 53.34057617 56.29443359 C53.22818604 57.18727051 53.1157959 58.08010742 53 59 C49.77208445 61.1519437 48.71599191 61.20086443 45 61 C45 61.99 45 62.98 45 64 C61.17 64 77.34 64 94 64 C94 64.33 94 64.66 94 65 C77.83 65.33 61.66 65.66 45 66 C46.78657757 68.21370051 46.78657757 68.21370051 49.1640625 68.1953125 C49.97617188 68.17210938 50.78828125 68.14890625 51.625 68.125 C52.44226563 68.10695313 53.25953125 68.08890625 54.1015625 68.0703125 C54.72804688 68.04710938 55.35453125 68.02390625 56 68 C56 68.33 56 68.66 56 69 C53.94921875 69.22786458 51.8984375 69.45572917 49.84765625 69.68359375 C47.98859771 69.81886614 47.98859771 69.81886614 47 71 C45.46359803 71.14484849 43.92116865 71.22703941 42.37890625 71.28125 C40.97608398 71.33732422 40.97608398 71.33732422 39.54492188 71.39453125 C38.56072266 71.42933594 37.57652344 71.46414062 36.5625 71.5 C34.62614952 71.56874617 32.68993487 71.64146875 30.75390625 71.71875 C29.89095947 71.74904297 29.0280127 71.77933594 28.13891602 71.81054688 C25.94887445 71.87283144 25.94887445 71.87283144 24 73 C48.09 73.33 72.18 73.66 97 74 C97 74.33 97 74.66 97 75 C96.08624603 75.00364563 95.17249207 75.00729126 94.23104858 75.01104736 C85.6090403 75.04895395 76.98740924 75.10583707 68.36566734 75.18390274 C63.93337931 75.22336919 59.5012897 75.25556166 55.06884766 75.27099609 C50.78921288 75.28616831 46.51012363 75.32062344 42.23073196 75.36830902 C40.60016249 75.38311708 38.96951513 75.39104069 37.33887863 75.39188385 C35.05003833 75.39425712 32.76270127 75.42136245 30.47412109 75.45410156 C28.52220352 75.46742523 28.52220352 75.46742523 26.53085327 75.48101807 C22.40258706 76.08781065 20.23117079 77.40739057 17 80 C15.41689248 82.23330318 15.41689248 82.23330318 14.4375 84.8125 C14.0353125 85.77542969 13.633125 86.73835938 13.21875 87.73046875 C11.63758255 91.97225451 10.20346424 96.25606305 8.81103516 100.5625 C4.65755208 113.34244792 4.65755208 113.34244792 1 117 C0.61328125 116.154375 0.2265625 115.30875 -0.171875 114.4375 C-3.52373756 107.09567095 -3.52373756 107.09567095 -7.125 99.875 C-8.69316719 96.82864244 -9.78917379 93.74857841 -10.875 90.5 C-12.7790473 85.07497634 -15.60778372 78.69610814 -21 76 C-23.37123246 75.76970044 -25.74741943 75.58880058 -28.125 75.4375 C-30.04699219 75.31181641 -30.04699219 75.31181641 -32.0078125 75.18359375 C-32.99523437 75.12300781 -33.98265625 75.06242187 -35 75 C-34.67 74.01 -34.34 73.02 -34 72 C-31.03 72 -28.06 72 -25 72 C-25 70.68 -25 69.36 -25 68 C-24.34 68 -23.68 68 -23 68 C-23 67.34 -23 66.68 -23 66 C-22.01 65.505 -22.01 65.505 -21 65 C-20.67 64.01 -20.34 63.02 -20 62 C-20 62.66 -20 63.32 -20 64 C-13.4 64 -6.8 64 0 64 C0 42.88 0 21.76 0 0 Z " fill="#E9062C" transform="translate(64,27)"/>
<path d="M0 0 C15.18 0 30.36 0 46 0 C48.25 14.625 48.25 14.625 48 20 C47.34 20 46.68 20 46 20 C45.505 18.4840625 45.505 18.4840625 45 16.9375 C42.93453478 12.09841005 39.26417438 8.95993057 35 6 C29.1846148 3.39756764 29.1846148 3.39756764 19 3 C19 12.57 19 22.14 19 32 C27.44911137 30.03477638 27.44911137 30.03477638 30 26.6875 C31.07917789 23.78720942 31.64297429 21.0704211 32 18 C33.75779183 21.1003858 34.40865186 23.75530966 34.8515625 27.28125 C34.98046875 28.28800781 35.109375 29.29476562 35.2421875 30.33203125 C35.36851562 31.37746094 35.49484375 32.42289063 35.625 33.5 C35.82609375 35.06814453 35.82609375 35.06814453 36.03125 36.66796875 C36.55311927 40.8269473 37 44.80170409 37 49 C36.34 49 35.68 49 35 49 C34.76925781 48.39671875 34.53851563 47.7934375 34.30078125 47.171875 C32.30828919 42.28908813 30.78501635 38.6707068 26 36 C23.69 35.67 21.38 35.34 19 35 C19 44.57 19 54.14 19 64 C31.20030673 64.28571245 31.20030673 64.28571245 41.453125 58.6796875 C42.21882813 57.84824219 42.21882813 57.84824219 43 57 C43.76570313 56.23042969 43.76570313 56.23042969 44.546875 55.4453125 C47.28056905 52.48125098 48.64496409 50.02374034 49 46 C49.66 46 50.32 46 51 46 C51.0561088 47.43700876 51.09369567 48.87473702 51.125 50.3125 C51.14820313 51.11300781 51.17140625 51.91351563 51.1953125 52.73828125 C50.90780967 57.5395785 49.86042061 62.26768666 49 67 C32.83 67 16.66 67 0 67 C0 66.01 0 65.02 0 64 C2.64 63.34 5.28 62.68 8 62 C8 53.09 8 44.18 8 35 C0.74 35 -6.52 35 -14 35 C-13.88641429 39.27142048 -13.75965359 43.54173682 -13.625 47.8125 C-13.5940625 49.02744141 -13.563125 50.24238281 -13.53125 51.49414062 C-13.47324219 53.23920898 -13.47324219 53.23920898 -13.4140625 55.01953125 C-13.3826416 56.09307861 -13.3512207 57.16662598 -13.31884766 58.27270508 C-13.18407693 61.2160765 -13.18407693 61.2160765 -11 64 C-8.94074861 64.72382467 -8.94074861 64.72382467 -7 65 C-7 65.66 -7 66.32 -7 67 C-16.24 67 -25.48 67 -35 67 C-35 66.34 -35 65.68 -35 65 C-33.2984375 64.5978125 -33.2984375 64.5978125 -31.5625 64.1875 C-30.386875 63.795625 -29.21125 63.40375 -28 63 C-27.04809718 60.14429154 -26.85815 58.29977627 -26.82299805 55.33251953 C-26.81016281 54.38788849 -26.79732758 53.44325745 -26.78410339 52.47000122 C-26.77671646 51.45122894 -26.76932953 50.43245667 -26.76171875 49.3828125 C-26.753647 48.33350555 -26.74557526 47.28419861 -26.73725891 46.20309448 C-26.72342599 43.98225555 -26.71270029 41.76139543 -26.70483398 39.54052734 C-26.687602 36.14509903 -26.6437057 32.75063959 -26.59960938 29.35546875 C-26.58948396 27.19792383 -26.58096738 25.04037063 -26.57421875 22.8828125 C-26.55671066 21.86808868 -26.53920258 20.85336487 -26.52116394 19.80789185 C-26.53465865 15.42152901 -26.54965986 12.76001319 -28.81958008 8.92919922 C-33.73066509 4.58395302 -38.57469818 3.91790026 -45 3 C-45 24.12 -45 45.24 -45 67 C-51.6 67 -58.2 67 -65 67 C-65 66.34 -65 65.68 -65 65 C-62.0173094 63.47551369 -59.181798 62.06059933 -56 61 C-56 41.86 -56 22.72 -56 3 C-63.2674931 5.05369682 -63.2674931 5.05369682 -68 10 C-68.44472656 10.48984375 -68.88945313 10.9796875 -69.34765625 11.484375 C-71.99124077 14.47478547 -73.77083656 17.20076754 -75 21 C-75.66 21 -76.32 21 -77 21 C-77.05583292 19.5421403 -77.09358421 18.08359017 -77.125 16.625 C-77.15980469 15.40683594 -77.15980469 15.40683594 -77.1953125 14.1640625 C-76.92122805 9.72389436 -75.87244606 5.36223031 -75 1 C-52.56 1 -30.12 1 -7 1 C-7 1.66 -7 2.32 -7 3 C-8.98 3.33 -10.96 3.66 -13 4 C-13.33 13.24 -13.66 22.48 -14 32 C-6.74 32 0.52 32 8 32 C7.88637126 28.06186693 7.75961276 24.12492326 7.625 20.1875 C7.5940625 19.06794922 7.563125 17.94839844 7.53125 16.79492188 C7.49257812 15.72177734 7.45390625 14.64863281 7.4140625 13.54296875 C7.3826416 12.55321045 7.3512207 11.56345215 7.31884766 10.54370117 C7.16226567 7.75924906 7.16226567 7.75924906 5 5 C2.43717258 4.27034634 2.43717258 4.27034634 0 4 C0 2.68 0 1.36 0 0 Z " fill="#F9F8F8" transform="translate(109,24)"/>
<path d="M0 0 C13.95708676 -0.86036836 13.95708676 -0.86036836 17.625 2.0625 C21.93310592 7.3909468 24.20643746 12.30644543 26.2265625 18.7578125 C27.19692894 21.570895 28.5055849 24.10660216 29.8828125 26.73828125 C32.17437292 31.37748923 34.05162586 36.20891605 36 41 C39.47981842 34.87182419 41.87020443 28.6252506 44 21.9375 C49.52944748 4.81132827 49.52944748 4.81132827 58 0 C61.56881714 -0.48101807 61.56881714 -0.48101807 65.56591797 -0.45410156 C66.29831192 -0.45468567 67.03070587 -0.45526978 67.78529358 -0.45587158 C70.18808637 -0.45310145 72.58961347 -0.42206265 74.9921875 -0.390625 C76.66512372 -0.38315874 78.33806873 -0.37746763 80.01101685 -0.37347412 C84.40063899 -0.35824795 88.78972639 -0.31899267 93.17913818 -0.2746582 C97.66362272 -0.23364003 102.14819419 -0.21544917 106.6328125 -0.1953125 C115.42211959 -0.15249502 124.21099315 -0.0842809 133 0 C133.16598947 1.60060852 133.33029836 3.20139139 133.49389648 4.80224609 C133.58557602 5.69366302 133.67725555 6.58507996 133.77171326 7.50350952 C134.02023989 10.22133873 134.10147945 12.89643825 134.0625 15.625 C134.05347656 16.46289062 134.04445312 17.30078125 134.03515625 18.1640625 C134.01775391 19.07285156 134.01775391 19.07285156 134 20 C132.50190228 18.01435569 131.01687381 16.0236049 129.5703125 14 C125.08773143 7.797077 121.41548642 4.34280478 114 2 C114.0844324 9.36296805 114.17932683 16.72572318 114.28752708 24.08838272 C114.33744294 27.50728559 114.38377312 30.92615828 114.421875 34.34521484 C114.46585076 38.27719477 114.52548319 42.2088625 114.5859375 46.140625 C114.59748871 47.36678528 114.60903992 48.59294556 114.62094116 49.85626221 C114.64081085 50.99714294 114.66068054 52.13802368 114.68115234 53.31347656 C114.69447601 54.31719299 114.70779968 55.32090942 114.7215271 56.3550415 C115.00933678 59.08868148 115.43378098 60.74609229 117 63 C120.05908413 63.81584568 120.05908413 63.81584568 123 64 C123 64.66 123 65.32 123 66 C116.4 66 109.8 66 103 66 C103 44.88 103 23.76 103 2 C94.45149791 4.25742795 94.45149791 4.25742795 90 10 C88.87027028 12.64258518 87.92436209 15.27313183 87 18 C86.34 18 85.68 18 85 18 C84.79246094 17.32453125 84.58492188 16.6490625 84.37109375 15.953125 C82.81702234 11.45347053 81.71512341 8.59593618 78 5.5 C72.80382344 3.40511863 72.80382344 3.40511863 62 2 C62 11.57 62 21.14 62 31 C69.52647091 29.79811642 69.52647091 29.79811642 72.4375 26.75 C74.1343054 23.7636225 74.68354655 21.40187461 75 18 C77.07863314 21.11794972 77.39862256 22.5572236 77.8515625 26.18359375 C77.98046875 27.19357422 78.109375 28.20355469 78.2421875 29.24414062 C78.36851563 30.29794922 78.49484375 31.35175781 78.625 32.4375 C78.82609375 34.01241211 78.82609375 34.01241211 79.03125 35.61914062 C79.55269991 39.79340037 80 43.78679646 80 48 C79.34 48 78.68 48 78 48 C77.78085938 47.39671875 77.56171875 46.7934375 77.3359375 46.171875 C75.18453748 40.7496473 73.47769152 37.62929193 68 35 C66.02 34.67 64.04 34.34 62 34 C62 43.9 62 53.8 62 64 C75.7099684 63.54267503 75.7099684 63.54267503 85.51953125 56.3359375 C86.69664617 54.90440293 87.85048897 53.45379336 89 52 C89.66 52 90.32 52 91 52 C91.33 49.69 91.66 47.38 92 45 C92.99 45 93.98 45 95 45 C94.29043161 52.09568389 93.17853777 58.92877337 92 66 C75.5 66 59 66 42 66 C42 65.34 42 64.68 42 64 C42.7425 63.71125 43.485 63.4225 44.25 63.125 C46.5448282 62.18620664 48.78233105 61.10883447 51 60 C50.67 45.48 50.34 30.96 50 16 C48.68 19.96 47.36 23.92 46 28 C45.03238392 30.01586684 44.03432904 32.01753602 43 34 C42.0314409 36.34031928 41.10994391 38.69736064 40.18359375 41.0546875 C37.89579485 46.74775802 35.43440787 52.36840313 33 58 C31.15234375 57.375 31.15234375 57.375 29 56 C27.69140625 53.3125 27.69140625 53.3125 26.5625 50 C25.0271127 45.69330994 23.40321463 41.65839917 21.25 37.625 C19.18118215 33.65598268 18.29059806 30.45583698 18 26 C17.34 26 16.68 26 16 26 C15.34 23.36 14.68 20.72 14 18 C13.34 18 12.68 18 12 18 C12.06894972 23.60549826 12.15695228 29.21025579 12.26245117 34.81518555 C12.29565962 36.72102631 12.32370425 38.62696446 12.34643555 40.53295898 C12.38005668 43.27630015 12.43237595 46.01875222 12.48828125 48.76171875 C12.49467117 49.61086349 12.5010611 50.46000824 12.50764465 51.33488464 C12.62273085 55.98883461 12.90445478 59.26603611 16 63 C18.59122743 63.88658466 18.59122743 63.88658466 21 64 C21 64.66 21 65.32 21 66 C14.07 66 7.14 66 0 66 C0 65.34 0 64.68 0 64 C0.763125 63.731875 1.52625 63.46375 2.3125 63.1875 C4.99067472 62.00412047 6.21584646 61.26851303 8 59 C8.44678217 56.75999103 8.44678217 56.75999103 8.37231445 54.24072266 C8.37854324 53.27607086 8.38477203 52.31141907 8.39118958 51.3175354 C8.38197983 50.27688934 8.37277008 49.23624329 8.36328125 48.1640625 C8.36377975 47.09255951 8.36427826 46.02105652 8.36479187 44.91708374 C8.36245012 42.64913073 8.35271569 40.38117519 8.33618164 38.11328125 C8.31263982 34.64559599 8.31561394 31.17868209 8.32226562 27.7109375 C8.31668714 25.50780792 8.3095762 23.30468158 8.30078125 21.1015625 C8.30169266 20.0649649 8.30260406 19.02836731 8.30354309 17.96035767 C8.29401108 16.98940155 8.28447906 16.01844543 8.2746582 15.01806641 C8.27005081 14.16773834 8.26544342 13.31741028 8.26069641 12.4413147 C7.95895799 9.61565847 7.29553542 7.52878661 6 5 C2.98303591 3.15725024 2.98303591 3.15725024 0 2 C0 1.34 0 0.68 0 0 Z " fill="#F4EAEC" transform="translate(29,102)"/>
<path d="M0 0 C22.44 0 44.88 0 68 0 C68 0.66 68 1.32 68 2 C66.865625 2.433125 65.73125 2.86625 64.5625 3.3125 C63.386875 3.869375 62.21125 4.42625 61 5 C59.97387402 8.07837794 59.87909781 10.16574296 59.88647461 13.3894043 C59.88655014 14.49031906 59.88662567 15.59123383 59.88670349 16.72550964 C59.89186478 17.91308365 59.89702606 19.10065765 59.90234375 20.32421875 C59.9037587 21.54075638 59.90517365 22.75729401 59.90663147 24.01069641 C59.91223688 27.9029891 59.92479033 31.79522464 59.9375 35.6875 C59.9425143 38.32356688 59.94707733 40.95963466 59.95117188 43.59570312 C59.96220807 50.06382164 59.9789515 56.53190674 60 63 C60.99 63.495 60.99 63.495 62 64 C58.04 64 54.08 64 50 64 C49 60 49 60 49.43847656 57.81201172 C50.2280958 53.85773591 50.07001874 50.02753802 49.984375 46.0078125 C49.96787903 45.14364716 49.95138306 44.27948181 49.93438721 43.38912964 C49.89698449 41.56518118 49.85645075 39.74129459 49.81298828 37.91748047 C49.75037606 35.14167215 49.70883146 32.36604615 49.66796875 29.58984375 C49.62890385 27.81247096 49.58858034 26.03512529 49.546875 24.2578125 C49.53734802 23.4346756 49.52782104 22.6115387 49.51800537 21.76345825 C49.36276929 16.47585641 48.48924721 12.69368866 46 8 C40.82734328 3.33199272 37.48443106 3.49688621 30 2 C30 23.12 30 44.24 30 66 C23.4 66 16.8 66 10 66 C10 65.34 10 64.68 10 64 C12.9826906 62.47551369 15.818202 61.06059933 19 60 C19 40.86 19 21.72 19 2 C11.7325069 4.05369682 11.7325069 4.05369682 7 9 C6.55527344 9.48984375 6.11054687 9.9796875 5.65234375 10.484375 C3.00875923 13.47478547 1.22916344 16.20076754 0 20 C-0.66 20 -1.32 20 -2 20 C-2.05583292 18.5421403 -2.09358421 17.08359017 -2.125 15.625 C-2.15980469 14.40683594 -2.15980469 14.40683594 -2.1953125 13.1640625 C-1.92122805 8.72389436 -0.87244606 4.36223031 0 0 Z " fill="#F9FAFA" transform="translate(34,25)"/>
<path d="M0 0 C0.33 1.65 0.66 3.3 1 5 C1.33 4.34 1.66 3.68 2 3 C2.66 3 3.32 3 4 3 C4.33 3.99 4.66 4.98 5 6 C5.99 6 6.98 6 8 6 C8 21.84 8 37.68 8 54 C5.525 54.495 5.525 54.495 3 55 C2.01 55.99 1.02 56.98 0 58 C-2.97 58.66 -5.94 59.32 -9 60 C-9 40.53 -9 21.06 -9 1 C-5.68756695 0.17189174 -3.34023421 -0.09278428 0 0 Z " fill="#EB032A" transform="translate(75,30)"/>
<path d="M0 0 C7.26 0 14.52 0 22 0 C22.08057875 4.45869066 22.14030229 8.91594056 22.1875 13.375 C22.21263672 14.64601563 22.23777344 15.91703125 22.26367188 17.2265625 C22.27333984 18.43828125 22.28300781 19.65 22.29296875 20.8984375 C22.3086792 22.01911621 22.32438965 23.13979492 22.34057617 24.29443359 C22.22818604 25.18727051 22.1157959 26.08010742 22 27 C17.245132 30.169912 11.39049266 30.47844931 5.7578125 29.68359375 C3.875 29.1875 3.875 29.1875 1 28 C-0.35700647 25.28598706 -0.1123861 23.15153684 -0.09765625 20.1171875 C-0.09443359 18.95058594 -0.09121094 17.78398438 -0.08789062 16.58203125 C-0.07951172 15.35871094 -0.07113281 14.13539062 -0.0625 12.875 C-0.05798828 11.64394531 -0.05347656 10.41289063 -0.04882812 9.14453125 C-0.03701341 6.09633361 -0.0190775 3.04816084 0 0 Z " fill="#E9042B" transform="translate(95,59)"/>
<path d="M0 0 C0.33 0 0.66 0 1 0 C1.126851 6.88659991 1.21437266 13.77289823 1.2746582 20.66040039 C1.29979125 23.00296284 1.33390308 25.34544695 1.37719727 27.68774414 C1.43789928 31.05634899 1.46622251 34.42391649 1.48828125 37.79296875 C1.51408768 38.83897751 1.5398941 39.88498627 1.56648254 40.96269226 C1.56833095 45.7623712 1.56482696 48.20733149 -1.28051758 52.20043945 C-4 54 -4 54 -8 54 C-8 54.66 -8 55.32 -8 56 C-1.07 56 5.86 56 13 56 C13 55.34 13 54.68 13 54 C12.2575 54.12375 11.515 54.2475 10.75 54.375 C8 54 8 54 5.85253906 51.56005859 C3.27979226 47.42099432 3.49325439 43.41112983 3.609375 38.6640625 C3.61786469 37.34503433 3.61786469 37.34503433 3.62652588 35.99935913 C3.64880916 33.20733818 3.69898937 30.41662908 3.75 27.625 C3.77007546 25.72527903 3.78832439 23.82553782 3.8046875 21.92578125 C3.84864744 17.28335334 3.91761818 12.64189863 4 8 C4.66 8 5.32 8 6 8 C7.76462683 11.08809695 8 12.23312136 8 16 C8.66 16 9.32 16 10 16 C10.4125 17.134375 10.825 18.26875 11.25 19.4375 C12.64868975 23.17605392 14.23816091 26.79182199 15.89453125 30.421875 C17.70117729 34.63525446 19.21395136 38.96042102 20.75390625 43.27734375 C21.83485188 46.26959634 21.83485188 46.26959634 25 48 C25.12375 47.278125 25.2475 46.55625 25.375 45.8125 C25.9904931 43.04278106 26.88444374 40.6029646 28 38 C29.04005702 41.38018531 29.08004482 44.4780279 29 48 C28.01 47.67 27.02 47.34 26 47 C25.67 47.99 25.34 48.98 25 50 C22.625 50.1875 22.625 50.1875 20 50 C19.34 49.01 18.68 48.02 18 47 C17.01 49.475 17.01 49.475 16 52 C15.34 52 14.68 52 14 52 C14 53.65 14 55.3 14 57 C6.41 57 -1.18 57 -9 57 C-9 55.68 -9 54.36 -9 53 C-9.66 52.67 -10.32 52.34 -11 52 C-8.3333581 50.66667905 -6.83319697 51.32897967 -4 52 C-4 51.34 -4 50.68 -4 50 C-3.34 50 -2.68 50 -2 50 C-2 49.34 -2 48.68 -2 48 C-1.34 48 -0.68 48 0 48 C0 32.16 0 16.32 0 0 Z " fill="#E71436" transform="translate(37,112)"/>
<path d="M0 0 C3.3 0 6.6 0 10 0 C9.67 20.79 9.34 41.58 9 63 C5.7 63 2.4 63 -1 63 C-0.67 42.21 -0.34 21.42 0 0 Z " fill="#FAFBFB" transform="translate(54,26)"/>
<path d="M0 0 C2.64 0 5.28 0 8 0 C8.61020359 9.01533683 9.07415396 18.01562274 9.24609375 27.05078125 C9.2710643 28.31291946 9.2710643 28.31291946 9.29653931 29.60055542 C9.36287464 33.05678688 9.42567227 36.51298975 9.47680664 39.96948242 C9.5163954 42.53848477 9.56783488 45.107031 9.62109375 47.67578125 C9.6295079 48.45488358 9.63792206 49.2339859 9.64659119 50.03669739 C9.73512319 53.89693369 10.04481655 56.66117835 12 60 C12 60.99 12 61.98 12 63 C8.04 63 4.08 63 0 63 C0 42.21 0 21.42 0 0 Z " fill="#F9FAFA" transform="translate(133,104)"/>
<path d="M0 0 C0.66 0 1.32 0 2 0 C2 20.46 2 40.92 2 62 C-1.96 62 -5.92 62 -10 62 C-9.67854004 61.22962402 -9.35708008 60.45924805 -9.02587891 59.66552734 C-7.67797576 54.84938794 -7.64491185 50.33055034 -7.5859375 45.3515625 C-7.56657135 44.33903412 -7.5472052 43.32650574 -7.5272522 42.28329468 C-7.46769277 39.06394758 -7.42116552 35.84456426 -7.375 32.625 C-7.33679849 30.43618272 -7.2977455 28.24738012 -7.2578125 26.05859375 C-7.16201077 20.70585995 -7.07689467 15.353037 -7 10 C-7.66 9.67 -8.32 9.34 -9 9 C-8.67 8.34 -8.34 7.68 -8 7 C-7.34 7 -6.68 7 -6 7 C-6 5.35 -6 3.7 -6 2 C-2.25 0.875 -2.25 0.875 0 2 C0 1.34 0 0.68 0 0 Z " fill="#FBFBFB" transform="translate(88,104)"/>
<path d="M0 0 C22.44 0 44.88 0 68 0 C68 0.66 68 1.32 68 2 C66.35 2.33 64.7 2.66 63 3 C63 2.34 63 1.68 63 1 C56.73 1 50.46 1 44 1 C44 1.99 44 2.98 44 4 C44.66 4 45.32 4 46 4 C45.67 4.99 45.34 5.98 45 7 C44.50371094 6.72285156 44.00742188 6.44570313 43.49609375 6.16015625 C42.47708984 5.61681641 42.47708984 5.61681641 41.4375 5.0625 C40.77621094 4.70285156 40.11492187 4.34320312 39.43359375 3.97265625 C36.33806372 2.62438692 36.33806372 2.62438692 30 2 C30 23.12 30 44.24 30 66 C23.4 66 16.8 66 10 66 C10 65.34 10 64.68 10 64 C12.9826906 62.47551369 15.818202 61.06059933 19 60 C19 40.86 19 21.72 19 2 C11.7325069 4.05369682 11.7325069 4.05369682 7 9 C6.55527344 9.48984375 6.11054687 9.9796875 5.65234375 10.484375 C3.00875923 13.47478547 1.22916344 16.20076754 0 20 C-0.66 20 -1.32 20 -2 20 C-2.05583292 18.5421403 -2.09358421 17.08359017 -2.125 15.625 C-2.15980469 14.40683594 -2.15980469 14.40683594 -2.1953125 13.1640625 C-1.92122805 8.72389436 -0.87244606 4.36223031 0 0 Z M20 1 C19.67 21.79 19.34 42.58 19 64 C22.3 64 25.6 64 29 64 C29.33 43.21 29.66 22.42 30 1 C26.7 1 23.4 1 20 1 Z " fill="#E699A3" transform="translate(34,25)"/>
<path d="M0 0 C15.18 0 30.36 0 46 0 C46 0.33 46 0.66 46 1 C31.15 1 16.3 1 1 1 C1 1.66 1 2.32 1 3 C2.1446875 2.87625 2.1446875 2.87625 3.3125 2.75 C6 3 6 3 7.64668274 4.6831665 C9.27229478 7.46615947 9.36348958 9.11145917 9.34057617 12.31933594 C9.34023628 13.91053253 9.34023628 13.91053253 9.33988953 15.53387451 C9.32440567 16.67253967 9.30892181 17.81120483 9.29296875 18.984375 C9.28872391 20.15510559 9.28447906 21.32583618 9.28010559 22.53204346 C9.26331175 26.27159616 9.22565704 30.01061015 9.1875 33.75 C9.17245413 36.28514847 9.15876556 38.82030538 9.14648438 41.35546875 C9.11340585 47.57049633 9.06319883 53.78520968 9 60 C8.67 60 8.34 60 8 60 C8 51.75 8 43.5 8 35 C0.74 35 -6.52 35 -14 35 C-13.88641429 39.27142048 -13.75965359 43.54173682 -13.625 47.8125 C-13.5940625 49.02744141 -13.563125 50.24238281 -13.53125 51.49414062 C-13.49257812 52.65751953 -13.45390625 53.82089844 -13.4140625 55.01953125 C-13.36693115 56.62985229 -13.36693115 56.62985229 -13.31884766 58.27270508 C-13.18407693 61.2160765 -13.18407693 61.2160765 -11 64 C-8.94074861 64.72382467 -8.94074861 64.72382467 -7 65 C-7 65.66 -7 66.32 -7 67 C-16.24 67 -25.48 67 -35 67 C-35 66.34 -35 65.68 -35 65 C-33.2984375 64.5978125 -33.2984375 64.5978125 -31.5625 64.1875 C-29.7990625 63.5996875 -29.7990625 63.5996875 -28 63 C-27.07943285 60.23829856 -26.85199851 58.47821145 -26.79467773 55.62036133 C-26.77473251 54.73967484 -26.75478729 53.85898834 -26.73423767 52.95161438 C-26.70916893 51.53117073 -26.70916893 51.53117073 -26.68359375 50.08203125 C-26.66281265 49.10965012 -26.64203156 48.13726898 -26.62062073 47.13542175 C-26.55521252 44.02785335 -26.49628071 40.92020015 -26.4375 37.8125 C-26.39430649 35.70637142 -26.35069193 33.60025144 -26.30664062 31.49414062 C-26.19954001 26.32951409 -26.09824781 21.16480222 -26 16 C-25.67 16 -25.34 16 -25 16 C-24.83211175 22.17455686 -24.67158084 28.34924502 -24.51782227 34.52416992 C-24.46450007 36.62415698 -24.40917863 38.72409429 -24.35180664 40.82397461 C-24.26962243 43.8447802 -24.19466328 46.86569259 -24.12109375 49.88671875 C-24.09405869 50.82335861 -24.06702362 51.75999847 -24.03916931 52.72502136 C-23.94243798 56.9633853 -23.87749114 60.86901621 -25 65 C-20.05 64.505 -20.05 64.505 -15 64 C-15.33 62.68 -15.66 61.36 -16 60 C-16.09447312 58.31119195 -16.13797899 56.61916712 -16.14526367 54.92773438 C-16.15164352 53.91988892 -16.15802338 52.91204346 -16.16459656 51.87365723 C-16.16570938 50.79128784 -16.1668222 49.70891846 -16.16796875 48.59375 C-16.17129715 47.47689819 -16.17462555 46.36004639 -16.17805481 45.20935059 C-16.1831152 42.8490439 -16.18546341 40.48873007 -16.18530273 38.12841797 C-16.1874916 34.51387808 -16.20566346 30.89964224 -16.22460938 27.28515625 C-16.22754297 24.99218854 -16.22952799 22.69921939 -16.23046875 20.40625 C-16.23765427 19.32388062 -16.24483978 18.24151123 -16.25224304 17.12634277 C-16.24916641 16.11849731 -16.24608978 15.11065186 -16.24291992 14.07226562 C-16.24434494 13.18720337 -16.24576996 12.30214111 -16.24723816 11.39025879 C-15.98305468 8.83617538 -15.28818127 7.2014106 -14 5 C-12.65114871 7.69770258 -12.98421517 9.65273375 -13.12109375 12.6640625 C-13.16943359 13.78554688 -13.21777344 14.90703125 -13.26757812 16.0625 C-13.32365234 17.238125 -13.37972656 18.41375 -13.4375 19.625 C-13.48970703 20.80835937 -13.54191406 21.99171875 -13.59570312 23.2109375 C-13.72565858 26.14084231 -13.86221378 29.07045301 -14 32 C-6.74 32 0.52 32 8 32 C7.88637126 28.06186693 7.75961276 24.12492326 7.625 20.1875 C7.5940625 19.06794922 7.563125 17.94839844 7.53125 16.79492188 C7.47324219 15.18520508 7.47324219 15.18520508 7.4140625 13.54296875 C7.3826416 12.55321045 7.3512207 11.56345215 7.31884766 10.54370117 C7.16226567 7.75924906 7.16226567 7.75924906 5 5 C2.43717258 4.27034634 2.43717258 4.27034634 0 4 C0 2.68 0 1.36 0 0 Z " fill="#E89AA4" transform="translate(109,24)"/>
<path d="M0 0 C0.99 0 1.98 0 3 0 C3 1.65 3 3.3 3 5 C4.98 5 6.96 5 9 5 C9 4.34 9 3.68 9 3 C9.99 3 10.98 3 12 3 C12 3.99 12 4.98 12 6 C12.66 6 13.32 6 14 6 C14.33 5.01 14.66 4.02 15 3 C15.33 3 15.66 3 16 3 C16.66 5.64 17.32 8.28 18 11 C15.69 11.33 13.38 11.66 11 12 C11.06960937 12.66386719 11.13921875 13.32773438 11.2109375 14.01171875 C11.64056076 21.01866954 11.64056076 21.01866954 9.83984375 23.77734375 C6.35575277 26.85154168 4.75051689 27 0 27 C0 18.09 0 9.18 0 0 Z " fill="#EA062B" transform="translate(92,106)"/>
<path d="M0 0 C10.16853933 0 10.16853933 0 13.875 1.8125 C14.95394531 2.31716797 14.95394531 2.31716797 16.0546875 2.83203125 C19.00303622 4.60222456 20.65554952 5.93349289 21.73046875 9.26171875 C21.88128906 10.06222656 22.03210938 10.86273438 22.1875 11.6875 C22.34605469 12.49574219 22.50460938 13.30398437 22.66796875 14.13671875 C22.77753906 14.75160156 22.88710937 15.36648437 23 16 C23.66 16 24.32 16 25 16 C25.0825 15.13375 25.165 14.2675 25.25 13.375 C26.12353312 9.44410097 27.50196364 7.14038857 30 4 C32.25 2.625 32.25 2.625 34 2 C33.67 3.65 33.34 5.3 33 7 C31.68 7 30.36 7 29 7 C28.87625 7.639375 28.7525 8.27875 28.625 8.9375 C27.8020178 12.97011276 26.90114025 16.98423907 26 21 C22.04 21.495 22.04 21.495 18 22 C18 28.6 18 35.2 18 42 C17.67 42 17.34 42 17 42 C15.515 30.615 15.515 30.615 14 19 C13.34 19.99 12.68 20.98 12 22 C12 19.36 12 16.72 12 14 C13.32 14 14.64 14 16 14 C16.33 13.01 16.66 12.02 17 11 C17 11.66 17 12.32 17 13 C17.66 13 18.32 13 19 13 C18.01 10.69 17.02 8.38 16 6 C15.67 6.66 15.34 7.32 15 8 C14.34 8 13.68 8 13 8 C13 7.01 13 6.02 13 5 C12.01 5 11.02 5 10 5 C10 5.66 10 6.32 10 7 C8.02 7 6.04 7 4 7 C4 5.35 4 3.7 4 2 C3.01 2 2.02 2 1 2 C1 10.91 1 19.82 1 29 C0.67 29 0.34 29 0 29 C0 19.43 0 9.86 0 0 Z " fill="#E42D4B" transform="translate(91,104)"/>
<path d="M0 0 C2.76223278 2.76223278 2.57856291 5.20706617 3 9 C3.99 9.33 4.98 9.66 6 10 C6 10.66 6 11.32 6 12 C5.34 12 4.68 12 4 12 C4.06894972 17.60549826 4.15695228 23.21025579 4.26245117 28.81518555 C4.29565962 30.72102631 4.32370425 32.62696446 4.34643555 34.53295898 C4.38005668 37.27630015 4.43237595 40.01875222 4.48828125 42.76171875 C4.49467117 43.61086349 4.5010611 44.46000824 4.50764465 45.33488464 C4.62273085 49.98883461 4.90445478 53.26603611 8 57 C10.59122743 57.88658466 10.59122743 57.88658466 13 58 C13 58.66 13 59.32 13 60 C6.07 60 -0.86 60 -8 60 C-8 59.34 -8 58.68 -8 58 C-7.236875 57.731875 -6.47375 57.46375 -5.6875 57.1875 C-2.99740076 55.9988515 -1.77371542 55.29512468 0 53 C0.43458659 50.56035291 0.43458659 50.56035291 0.34057617 47.79418945 C0.34034958 46.73331619 0.34012299 45.67244293 0.33988953 44.579422 C0.32440567 43.43559555 0.30892181 42.2917691 0.29296875 41.11328125 C0.28872391 39.94113571 0.28447906 38.76899017 0.28010559 37.56132507 C0.26329072 33.81148466 0.22563232 30.06217843 0.1875 26.3125 C0.17245684 23.77279421 0.1587678 21.23308001 0.14648438 18.69335938 C0.11337796 12.46205681 0.06315028 6.23106656 0 0 Z " fill="#EEC6CF" transform="translate(37,108)"/>
<path d="M0 0 C4.94463086 0.66939948 7.23573837 1.58865936 10.875 5.0625 C11.65617187 5.79597656 12.43734375 6.52945313 13.2421875 7.28515625 C13.82226562 7.85105469 14.40234375 8.41695312 15 9 C14.67 9.66 14.34 10.32 14 11 C10.125 9.25 10.125 9.25 9 7 C6.69 6.01 4.38 5.02 2 4 C2 21.49 2 38.98 2 57 C3.98 56.505 3.98 56.505 6 56 C6.66 56.99 7.32 57.98 8 59 C7.67 59.33 7.34 59.66 7 60 C8.32 60.66 9.64 61.32 11 62 C10.67 63.32 10.34 64.64 10 66 C3.07 66 -3.86 66 -11 66 C-11 65.34 -11 64.68 -11 64 C-4.4 64 2.2 64 9 64 C9 63.34 9 62.68 9 62 C8.071875 61.9175 7.14375 61.835 6.1875 61.75 C3 61 3 61 1.32206726 59.30853271 C-0.3214681 56.43866726 -0.36246313 54.61111209 -0.34057617 51.31347656 C-0.34034958 50.17259583 -0.34012299 49.03171509 -0.33988953 47.85626221 C-0.32440567 46.63010193 -0.30892181 45.40394165 -0.29296875 44.140625 C-0.28872391 42.88111023 -0.28447906 41.62159546 -0.28010559 40.32391357 C-0.26616121 36.98311462 -0.23922925 33.64293416 -0.20599365 30.30230713 C-0.17524839 26.89039442 -0.16159079 23.4784177 -0.14648438 20.06640625 C-0.11339814 13.37743351 -0.06318524 6.68875246 0 0 Z " fill="#E30B2D" transform="translate(143,104)"/>
<path d="M0 0 C0.66 0 1.32 0 2 0 C2.0561088 1.43700876 2.09369567 2.87473702 2.125 4.3125 C2.14820313 5.11300781 2.17140625 5.91351563 2.1953125 6.73828125 C1.90780967 11.5395785 0.86042061 16.26768666 0 21 C-16.17 21 -32.34 21 -49 21 C-49 20.01 -49 19.02 -49 18 C-46.69 17.34 -44.38 16.68 -42 16 C-42.33 17.32 -42.66 18.64 -43 20 C-36.565 19.505 -36.565 19.505 -30 19 C-30 18.67 -30 18.34 -30 18 C-28.9378125 17.99742188 -27.875625 17.99484375 -26.78125 17.9921875 C-16.31814241 17.8942298 -16.31814241 17.8942298 -7.546875 12.6796875 C-6.78117187 11.84824219 -6.78117187 11.84824219 -6 11 C-5.23429687 10.23042969 -5.23429687 10.23042969 -4.453125 9.4453125 C-1.71943095 6.48125098 -0.35503591 4.02374034 0 0 Z " fill="#ECC3C5" transform="translate(158,70)"/>
<path d="M0 0 C1.32 0.33 2.64 0.66 4 1 C4 1.66 4 2.32 4 3 C1.35261084 4.4606285 0.10551666 5 -3 5 C-3 5.66 -3 6.32 -3 7 C6.24 7 15.48 7 25 7 C25 6.34 25 5.68 25 5 C23.68 4.67 22.36 4.34 21 4 C22.45823212 3.9729957 23.91660675 3.95360213 25.375 3.9375 C26.18710938 3.92589844 26.99921875 3.91429688 27.8359375 3.90234375 C30 4 30 4 32 5 C32 5.66 32 6.32 32 7 C48.17 7 64.34 7 81 7 C81 7.33 81 7.66 81 8 C64.83 8.33 48.66 8.66 32 9 C33.78657757 11.21370051 33.78657757 11.21370051 36.1640625 11.1953125 C36.97617188 11.17210938 37.78828125 11.14890625 38.625 11.125 C39.44226563 11.10695313 40.25953125 11.08890625 41.1015625 11.0703125 C41.72804687 11.04710938 42.35453125 11.02390625 43 11 C43 11.33 43 11.66 43 12 C40.94921875 12.22786458 38.8984375 12.45572917 36.84765625 12.68359375 C34.98859771 12.81886614 34.98859771 12.81886614 34 14 C32.5112814 14.08669432 31.018555 14.10703494 29.52734375 14.09765625 C28.62822266 14.09443359 27.72910156 14.09121094 26.80273438 14.08789062 C25.85720703 14.07951172 24.91167969 14.07113281 23.9375 14.0625 C22.98810547 14.05798828 22.03871094 14.05347656 21.06054688 14.04882812 C18.70696935 14.0370011 16.35351523 14.02052025 14 14 C14 13.67 14 13.34 14 13 C20.435 12.505 20.435 12.505 27 12 C24.03 11.505 24.03 11.505 21 11 C21.99 10.67 22.98 10.34 24 10 C24 9.34 24 8.68 24 8 C14.76 8 5.52 8 -4 8 C-4 6.68 -4 5.36 -4 4 C-2.68 3.67 -1.36 3.34 0 3 C0 2.01 0 1.02 0 0 Z " fill="#E30E31" transform="translate(77,84)"/>
<path d="M0 0 C13.5686901 0 13.5686901 0 19 4 C21.5 6.75 21.5 6.75 23 9 C21.35 9.66 19.7 10.32 18 11 C17.54625 10.030625 17.0925 9.06125 16.625 8.0625 C15.34213779 4.92920418 15.34213779 4.92920418 13 4 C9.01505655 3.08915578 5.0655658 2.58079511 1 2 C1 8.93 1 15.86 1 23 C2.32 23 3.64 23 5 23 C5 17.39 5 11.78 5 6 C5.33 6 5.66 6 6 6 C6.33 11.28 6.66 16.56 7 22 C7.99 21.67 8.98 21.34 10 21 C9.67 18.36 9.34 15.72 9 13 C11.97 13.495 11.97 13.495 15 14 C15.125 16.375 15.125 16.375 15 19 C14.34 19.66 13.68 20.32 13 21 C12.3503125 22.2065625 12.3503125 22.2065625 11.6875 23.4375 C9.73364944 26.40445825 8.22193925 27.54245605 5 29 C3.35 29 1.7 29 0 29 C0 19.43 0 9.86 0 0 Z " fill="#DF1E40" transform="translate(128,27)"/>
<path d="M0 0 C1.75779183 3.1003858 2.40865186 5.75530966 2.8515625 9.28125 C2.98046875 10.28800781 3.109375 11.29476562 3.2421875 12.33203125 C3.36851562 13.37746094 3.49484375 14.42289063 3.625 15.5 C3.7590625 16.54542969 3.893125 17.59085938 4.03125 18.66796875 C4.55311927 22.8269473 5 26.80170409 5 31 C4.34 31 3.68 31 3 31 C2.76925781 30.39671875 2.53851563 29.7934375 2.30078125 29.171875 C0.30828919 24.28908813 -1.21498365 20.6707068 -6 18 C-8.31 17.67 -10.62 17.34 -13 17 C-13 26.57 -13 36.14 -13 46 C-13.33 46 -13.66 46 -14 46 C-14.02469321 41.7641643 -14.04285671 37.52836658 -14.05493164 33.29248047 C-14.05996474 31.8510668 -14.06679173 30.40965824 -14.07543945 28.96826172 C-14.08754983 26.89809915 -14.09323847 24.82800399 -14.09765625 22.7578125 C-14.10289307 21.5114502 -14.10812988 20.26508789 -14.11352539 18.98095703 C-14 16 -14 16 -13 14 C-11.0390625 13.32421875 -11.0390625 13.32421875 -8.625 12.6875 C-5.43681381 11.6753774 -4.23447332 11.27110978 -2 8.6875 C-0.92082211 5.78720942 -0.35702571 3.0704211 0 0 Z " fill="#F1D6DA" transform="translate(141,42)"/>
<path d="M0 0 C7.91011236 0 7.91011236 0 11.25 1.8125 C11.89453125 2.14894531 12.5390625 2.48539063 13.203125 2.83203125 C15.09168979 4.05959837 16.54088669 5.28419083 18 7 C18 7.66 18 8.32 18 9 C17.34 9 16.68 9 16 9 C15.67 10.32 15.34 11.64 15 13 C15 10.69 15 8.38 15 6 C14.34 6 13.68 6 13 6 C12.67 6.99 12.34 7.98 12 9 C11 8 11 8 10.9375 5.4375 C10.958125 4.633125 10.97875 3.82875 11 3 C6.545 3.495 6.545 3.495 2 4 C2 23.8 2 43.6 2 64 C1.34 64 0.68 64 0 64 C0 42.88 0 21.76 0 0 Z " fill="#DF3950" transform="translate(64,27)"/>
<path d="M0 0 C14.85 0 29.7 0 45 0 C47.25 13.5 47.25 13.5 47 19 C46.34 19 45.68 19 45 19 C44.505 17.4840625 44.505 17.4840625 44 15.9375 C41.63564373 10.39815103 36.92741352 6.37787927 31.53515625 3.83984375 C21.7530349 0.59923344 10.19205373 1.89908858 0 2 C0 1.34 0 0.68 0 0 Z " fill="#F1DBDD" transform="translate(110,25)"/>
<path d="M0 0 C0.33 0 0.66 0 1 0 C1 1.65 1 3.3 1 5 C0.34 5 -0.32 5 -1 5 C-0.67 5.99 -0.34 6.98 0 8 C0.08669529 9.51907624 0.117694 11.04169001 0.11352539 12.56323242 C0.11344986 13.48396042 0.11337433 14.40468842 0.11329651 15.35331726 C0.10813522 16.34402725 0.10297394 17.33473724 0.09765625 18.35546875 C0.0962413 19.37224197 0.09482635 20.3890152 0.09336853 21.43659973 C0.08776707 24.68692964 0.07521432 27.93719088 0.0625 31.1875 C0.05748519 33.38997296 0.05292225 35.59244701 0.04882812 37.79492188 C0.03779717 43.19663804 0.02105762 48.59831412 0 54 C-0.33 54 -0.66 54 -1 54 C-1.495 33.21 -1.495 33.21 -2 12 C-3.32 15.96 -4.64 19.92 -6 24 C-6.96761608 26.01586684 -7.96567096 28.01753602 -9 30 C-10.04047703 32.59916831 -11.04690744 35.20867032 -12.03515625 37.828125 C-13 40 -13 40 -15 42 C-15.66 40.35 -16.32 38.7 -17 37 C-16.56429687 36.65710938 -16.12859375 36.31421875 -15.6796875 35.9609375 C-13.30529861 33.18897651 -12.31826962 30.01926876 -11.125 26.625 C-10.60063826 25.18345625 -10.07589289 23.742052 -9.55078125 22.30078125 C-9.29119629 21.57971191 -9.03161133 20.85864258 -8.76416016 20.11572266 C-7.64030104 17.00410505 -6.48306814 13.9069022 -5.3125 10.8125 C-4.93738281 9.80832031 -4.56226562 8.80414063 -4.17578125 7.76953125 C-2.996662 4.9921374 -1.66775597 2.51311988 0 0 Z " fill="#EEA4A7" transform="translate(81,106)"/>
<path d="M0 0 C0.99 0 1.98 0 3 0 C2.29043161 7.09568389 1.17853777 13.92877337 0 21 C-16.5 21 -33 21 -50 21 C-50 20.34 -50 19.68 -50 19 C-49.236875 18.71125 -48.47375 18.4225 -47.6875 18.125 C-44.84970692 17.03730987 -44.84970692 17.03730987 -42 15 C-42.66 16.32 -43.32 17.64 -44 19 C-29.81 19.33 -15.62 19.66 -1 20 C-1.495 16.04 -1.495 16.04 -2 12 C-2.763125 12.495 -3.52625 12.99 -4.3125 13.5 C-7 15 -7 15 -10 15 C-8.88200014 13.66079162 -7.75538103 12.32877444 -6.625 11 C-5.99851563 10.2575 -5.37203125 9.515 -4.7265625 8.75 C-4.15679687 8.1725 -3.58703125 7.595 -3 7 C-2.34 7 -1.68 7 -1 7 C-0.67 4.69 -0.34 2.38 0 0 Z " fill="#EAC1C6" transform="translate(121,147)"/>
<path d="M0 0 C0.33 0 0.66 0 1 0 C1 21.12 1 42.24 1 64 C-5.6 64 -12.2 64 -19 64 C-19 63.34 -19 62.68 -19 62 C-16.0173094 60.47551369 -13.181798 59.06059933 -10 58 C-9.67 57.01 -9.34 56.02 -9 55 C-9 56.98 -9 58.96 -9 61 C-6.03 61.33 -3.06 61.66 0 62 C0 41.54 0 21.08 0 0 Z " fill="#F6E7E7" transform="translate(63,27)"/>
<path d="M0 0 C3.96 0 7.92 0 12 0 C13.67652621 6.49653906 14.25175735 12.30045728 14 19 C12.50190228 17.01435569 11.01687381 15.0236049 9.5703125 13 C6.68116888 9.00204991 3.88007197 6.08123362 0 3 C0 2.01 0 1.02 0 0 Z " fill="#EFD2D3" transform="translate(149,103)"/>
<path d="M0 0 C3.3 0 6.6 0 10 0 C10.33 0.99 10.66 1.98 11 3 C10.278125 3.70125 9.55625 4.4025 8.8125 5.125 C6.88665978 7.04538458 5.10250503 9.02468994 3.375 11.125 C1.64286983 13.22178915 -0.0643586 15.10911331 -2 17 C-1.85899143 14.72886197 -1.71203245 12.45809275 -1.5625 10.1875 C-1.48128906 8.92292969 -1.40007813 7.65835938 -1.31640625 6.35546875 C-1 3 -1 3 0 0 Z " fill="#F5F5F7" transform="translate(35,26)"/>
<path d="M0 0 C2.31 0 4.62 0 7 0 C7 0.33 7 0.66 7 1 C5.02 1 3.04 1 1 1 C1 9.91 1 18.82 1 28 C6.28 27.67 11.56 27.34 17 27 C17 26.01 17 25.02 17 24 C17.99 24 18.98 24 20 24 C19.67 23.01 19.34 22.02 19 21 C19.639375 20.87625 20.27875 20.7525 20.9375 20.625 C21.618125 20.41875 22.29875 20.2125 23 20 C23.33 19.34 23.66 18.68 24 18 C24.66 18 25.32 18 26 18 C26 17.34 26 16.68 26 16 C26.66 16 27.32 16 28 16 C28 15.01 28 14.02 28 13 C28.66 13 29.32 13 30 13 C29.41600702 16.77018995 27.77361187 18.75901388 25.25 21.5625 C24.57453125 22.32691406 23.8990625 23.09132813 23.203125 23.87890625 C18.97026975 27.95415518 16.07851286 29.34078919 10.08081055 29.27026367 C9.29101807 29.24295166 8.50122559 29.21563965 7.6875 29.1875 C5.150625 29.125625 2.61375 29.06375 0 29 C0 19.43 0 9.86 0 0 Z " fill="#D72540" transform="translate(128,59)"/>
<path d="M0 0 C0.33 0 0.66 0 1 0 C1 20.79 1 41.58 1 63 C4.96 63 8.92 63 13 63 C12.34 61.02 11.68 59.04 11 57 C11.99 57.66 12.98 58.32 14 59 C14 59.66 14 60.32 14 61 C15.98 61.33 17.96 61.66 20 62 C20 62.66 20 63.32 20 64 C13.4 64 6.8 64 0 64 C0 42.88 0 21.76 0 0 Z " fill="#EAC3C7" transform="translate(132,104)"/>
<path d="M0 0 C5.89266858 0.98211143 6.88640604 1.25520577 10.875 5.0625 C11.65617188 5.79597656 12.43734375 6.52945313 13.2421875 7.28515625 C13.82226562 7.85105469 14.40234375 8.41695312 15 9 C14.67 9.66 14.34 10.32 14 11 C10.125 9.25 10.125 9.25 9 7 C8.34 6.690625 7.68 6.38125 7 6.0625 C5 5 5 5 4 2 C3.34 2 2.68 2 2 2 C1.67 20.15 1.34 38.3 1 57 C0.67 57 0.34 57 0 57 C0 38.19 0 19.38 0 0 Z " fill="#E53852" transform="translate(143,104)"/>
<path d="M0 0 C0.33 0 0.66 0 1 0 C1 14.85 1 29.7 1 45 C0.67 45 0.34 45 0 45 C0 33.78 0 22.56 0 11 C-0.66 11 -1.32 11 -2 11 C-3.80317221 14.96697886 -4.49202991 18.6822542 -5 23 C-5.99 23 -6.98 23 -8 23 C-7.5824128 17.98895366 -6.42346522 14.48409025 -4.0546875 10.06640625 C-2.39584462 6.81630298 -1.22631669 3.43368674 0 0 Z " fill="#E12C37" transform="translate(79,117)"/>
<path d="M0 0 C24.75 0 49.5 0 75 0 C74.67 1.32 74.34 2.64 74 4 C74 3.01 74 2.02 74 1 C70.04 1 66.08 1 62 1 C62 1.66 62 2.32 62 3 C61.13007416 2.83923477 60.26014832 2.67846954 59.36386108 2.51283264 C56.25028198 2.03815638 53.32327953 1.84448633 50.17822266 1.79467773 C48.49715927 1.7647599 48.49715927 1.7647599 46.78213501 1.73423767 C45.58817108 1.71752518 44.39420715 1.70081268 43.1640625 1.68359375 C41.92957367 1.66281265 40.69508484 1.64203156 39.42318726 1.62062073 C35.49051329 1.55538164 31.55777411 1.49635948 27.625 1.4375 C24.95441143 1.39479388 22.28384851 1.35067536 19.61328125 1.30664062 C13.07558921 1.19972653 6.53783271 1.09791299 0 1 C0 0.67 0 0.34 0 0 Z " fill="#ECB0B7" transform="translate(87,102)"/>
<path d="M0 0 C0.99 0 1.98 0 3 0 C3.04898438 0.62648437 3.09796875 1.25296875 3.1484375 1.8984375 C3.22320312 2.71570313 3.29796875 3.53296875 3.375 4.375 C3.44460937 5.18710938 3.51421875 5.99921875 3.5859375 6.8359375 C3.82892588 9.20334191 3.82892588 9.20334191 6 11 C6.125 13.625 6.125 13.625 6 16 C5.67 15.34 5.34 14.68 5 14 C4.34 14 3.68 14 3 14 C2.87625 15.27875 2.7525 16.5575 2.625 17.875 C2.25 21.75 2.25 21.75 0 24 C0 16.08 0 8.16 0 0 Z " fill="#EA0225" transform="translate(42,128)"/>
<path d="M0 0 C1.32 0.33 2.64 0.66 4 1 C4 6.94 4 12.88 4 19 C6.97 19 9.94 19 13 19 C11 21 11 21 8.8359375 21.1953125 C8.02382812 21.17210937 7.21171875 21.14890625 6.375 21.125 C5.55773437 21.10695312 4.74046875 21.08890625 3.8984375 21.0703125 C3.27195312 21.04710937 2.64546875 21.02390625 2 21 C1.11360611 18.34081834 0.82010975 16.51935359 0.68359375 13.76953125 C0.64169922 12.96708984 0.59980469 12.16464844 0.55664062 11.33789062 C0.51732422 10.50451172 0.47800781 9.67113281 0.4375 8.8125 C0.39431641 7.96751953 0.35113281 7.12253906 0.30664062 6.25195312 C0.20068482 4.16815567 0.0998498 2.08409897 0 0 Z " fill="#EA0227" transform="translate(92,143)"/>
<path d="M0 0 C12.54 0 25.08 0 38 0 C38 0.66 38 1.32 38 2 C36.35 2.33 34.7 2.66 33 3 C33 2.34 33 1.68 33 1 C26.73 1 20.46 1 14 1 C14 1.99 14 2.98 14 4 C14.66 4 15.32 4 16 4 C15.67 4.99 15.34 5.98 15 7 C14.50371094 6.72285156 14.00742188 6.44570313 13.49609375 6.16015625 C8.90681832 3.71312324 5.18440279 2.43203357 0 2 C0 1.34 0 0.68 0 0 Z " fill="#EEBBBD" transform="translate(64,25)"/>
<path d="M0 0 C1.75779183 3.1003858 2.40865186 5.75530966 2.8515625 9.28125 C2.98046875 10.28800781 3.109375 11.29476562 3.2421875 12.33203125 C3.43167969 13.90017578 3.43167969 13.90017578 3.625 15.5 C3.7590625 16.54542969 3.893125 17.59085938 4.03125 18.66796875 C4.55311927 22.8269473 5 26.80170409 5 31 C4.34 31 3.68 31 3 31 C-1.60299601 21.93229541 -1.60299601 21.93229541 0 17 C0.2120314 15.39889112 0.39758767 13.79414584 0.5625 12.1875 C0.64628906 11.39730469 0.73007813 10.60710938 0.81640625 9.79296875 C0.87699219 9.20128906 0.93757812 8.60960937 1 8 C0.34 8 -0.32 8 -1 8 C-0.67 5.36 -0.34 2.72 0 0 Z " fill="#F3E6E8" transform="translate(141,42)"/>
<path d="M0 0 C2.2580605 3.38709075 2.79994908 5.96642159 3.625 9.9375 C3.88539062 11.16339844 4.14578125 12.38929688 4.4140625 13.65234375 C5 17 5 17 5 21 C4.34 21 3.68 21 3 21 C-2.55580866 8.51480638 -2.55580866 8.51480638 -3 2 C-2.01 1.34 -1.02 0.68 0 0 Z " fill="#F4F2F3" transform="translate(104,129)"/>
<path d="M0 0 C0.33 0.66 0.66 1.32 1 2 C0.67 2.66 0.34 3.32 0 4 C14.19 4 28.38 4 43 4 C43 4.33 43 4.66 43 5 C26.83 5 10.66 5 -6 5 C-6 4.01 -6 3.02 -6 2 C-4.02 1.34 -2.04 0.68 0 0 Z " fill="#EBA4A9" transform="translate(115,86)"/>
<path d="M0 0 C0 3.3 0 6.6 0 10 C-3.96 10 -7.92 10 -12 10 C-10.33333333 8.33333333 -8.66666667 6.66666667 -7 5 C-6.113125 4.071875 -5.22625 3.14375 -4.3125 2.1875 C-2 0 -2 0 0 0 Z " fill="#F6F7F7" transform="translate(157,80)"/>
<path d="M0 0 C0.66 0 1.32 0 2 0 C2.45572917 1.98567708 2.91145833 3.97135417 3.3671875 5.95703125 C3.98007723 8.27742974 3.98007723 8.27742974 6 11 C5.75 12.875 5.75 12.875 5 15 C4.5978125 16.3303125 4.5978125 16.3303125 4.1875 17.6875 C3.5996875 18.8321875 3.5996875 18.8321875 3 20 C1.68 20.33 0.36 20.66 -1 21 C-0.34 14.73 0.32 8.46 1 2 C0.34 1.67 -0.32 1.34 -1 1 C-0.67 0.67 -0.34 0.34 0 0 Z " fill="#E51434" transform="translate(159,68)"/>
<path d="M0 0 C1.98 0.99 1.98 0.99 4 2 C4.12920302 19.69683879 3.87682657 37.32354939 3 55 C2.67 55 2.34 55 2 55 C1.9845388 54.03280281 1.9845388 54.03280281 1.96876526 53.04606628 C1.86074573 46.34660609 1.74614392 39.64728163 1.62768555 32.94799805 C1.58432212 30.44639928 1.54264809 27.94477064 1.50268555 25.44311523 C1.44501729 21.85130808 1.38131267 18.25965148 1.31640625 14.66796875 C1.29969376 13.54601608 1.28298126 12.42406342 1.26576233 11.26811218 C1.24581711 10.22725967 1.22587189 9.18640717 1.20532227 8.11401367 C1.18977798 7.19690109 1.1742337 6.27978851 1.15821838 5.33488464 C1.087709 2.84418392 1.087709 2.84418392 0 0 Z " fill="#F7F0EF" transform="translate(116,28)"/>
<path d="M0 0 C0.33 0 0.66 0 1 0 C1 1.98 1 3.96 1 6 C1.63808594 6.04898438 2.27617188 6.09796875 2.93359375 6.1484375 C3.75988281 6.22320312 4.58617187 6.29796875 5.4375 6.375 C6.26121094 6.44460937 7.08492187 6.51421875 7.93359375 6.5859375 C8.61550781 6.72257812 9.29742187 6.85921875 10 7 C10.33 7.66 10.66 8.32 11 9 C4.4 9 -2.2 9 -9 9 C-9 8.34 -9 7.68 -9 7 C-6.0173094 5.47551369 -3.181798 4.06059933 0 3 C0 2.01 0 1.02 0 0 Z " fill="#F1C5C8" transform="translate(53,82)"/>
<path d="M0 0 C0 2.97 0 5.94 0 9 C-7.42857143 9.28571429 -7.42857143 9.28571429 -11 7 C-10.34 7 -9.68 7 -9 7 C-9 6.34 -9 5.68 -9 5 C-3.39393939 0 -3.39393939 0 0 0 Z " fill="#F5F6F7" transform="translate(120,158)"/>
<path d="M0 0 C0.99 0.33 1.98 0.66 3 1 C3 1.66 3 2.32 3 3 C2.34 3 1.68 3 1 3 C1.09360093 8.62366547 1.19971008 14.2469038 1.31738281 19.87011719 C1.35564968 21.78281195 1.39050658 23.69557811 1.421875 25.60839844 C1.46757527 28.35898342 1.52556145 31.10907783 1.5859375 33.859375 C1.59748871 34.71368103 1.60903992 35.56798706 1.62094116 36.44818115 C1.64081085 37.24870911 1.66068054 38.04923706 1.68115234 38.87402344 C1.69447601 39.57573669 1.70779968 40.27744995 1.7215271 41.00042725 C2.04434665 43.31843079 2.85873038 44.97133684 4 47 C2.68 47 1.36 47 0 47 C0 31.49 0 15.98 0 0 Z " fill="#E6B7BA" transform="translate(40,117)"/>
<path d="M0 0 C0.66 0 1.32 0 2 0 C3.76462683 3.08809695 4 4.23312136 4 8 C3.01 8 2.02 8 1 8 C1 18.56 1 29.12 1 40 C0.67 40 0.34 40 0 40 C0 26.8 0 13.6 0 0 Z " fill="#E13548" transform="translate(41,120)"/>
<path d="M0 0 C6.04596616 0.26870961 10.22892396 0.92713021 15 5 C16.375 7.25 16.375 7.25 17 9 C16.34 9 15.68 9 15 9 C14.67 10.32 14.34 11.64 14 13 C14 10.69 14 8.38 14 6 C13.34 6 12.68 6 12 6 C11.67 6.99 11.34 7.98 11 9 C10 8 10 8 9.9375 5.4375 C9.958125 4.633125 9.97875 3.82875 10 3 C8.72125 3.185625 7.4425 3.37125 6.125 3.5625 C2.25 4.125 2.25 4.125 0 3 C0 2.01 0 1.02 0 0 Z " fill="#E21D39" transform="translate(65,27)"/>
<path d="M0 0 C12.89098663 -0.68853935 12.89098663 -0.68853935 16.625 1.75 C18.71322782 3.7283211 20.4463256 5.58317316 22 8 C20.35 8.66 18.7 9.32 17 10 C16.54625 9.030625 16.0925 8.06125 15.625 7.0625 C14.34213779 3.92920418 14.34213779 3.92920418 12 3 C8.03560277 2.09385206 4.02675953 1.55269248 0 1 C0 0.67 0 0.34 0 0 Z " fill="#E21937" transform="translate(129,28)"/>
<path d="M0 0 C2.31 0.33 4.62 0.66 7 1 C7.5625 2.9375 7.5625 2.9375 8 5 C7 6 7 6 4.95874023 6.11352539 C4.08419189 6.10828857 3.20964355 6.10305176 2.30859375 6.09765625 C1.36435547 6.09443359 0.42011719 6.09121094 -0.55273438 6.08789062 C-1.54595703 6.07951172 -2.53917969 6.07113281 -3.5625 6.0625 C-4.55958984 6.05798828 -5.55667969 6.05347656 -6.58398438 6.04882812 C-9.05604849 6.03700007 -11.52799518 6.02051849 -14 6 C-14 5.34 -14 4.68 -14 4 C-7.4 4 -0.8 4 6 4 C6 3.34 6 2.68 6 2 C3.03 1.505 3.03 1.505 0 1 C0 0.67 0 0.34 0 0 Z " fill="#E32F49" transform="translate(146,164)"/>
<path d="M0 0 C1.32 0.33 2.64 0.66 4 1 C4 1.66 4 2.32 4 3 C1.35261084 4.4606285 0.10551666 5 -3 5 C-3 5.66 -3 6.32 -3 7 C6.24 7 15.48 7 25 7 C25 6.34 25 5.68 25 5 C23.68 4.67 22.36 4.34 21 4 C22.65 4 24.3 4 26 4 C26 5.32 26 6.64 26 8 C16.1 8 6.2 8 -4 8 C-4 6.68 -4 5.36 -4 4 C-2.68 3.67 -1.36 3.34 0 3 C0 2.01 0 1.02 0 0 Z " fill="#DF2E4C" transform="translate(77,84)"/>
<path d="M0 0 C1.60798278 4.0003474 0.29504382 6.62851088 -1.25 10.5 C-1.68828125 11.6240625 -2.1265625 12.748125 -2.578125 13.90625 C-3.82536394 16.62002264 -5.09815795 18.71778954 -7 21 C-7.66 19.35 -8.32 17.7 -9 16 C-8.54753906 15.608125 -8.09507813 15.21625 -7.62890625 14.8125 C-5.6941019 12.65962418 -4.93355887 10.70992535 -3.9375 8 C-2.81438429 4.96894073 -1.81054059 2.71581089 0 0 Z " fill="#EBB2BC" transform="translate(73,127)"/>
<path d="M0 0 C0.66 0 1.32 0 2 0 C1.27991594 4.60853797 -0.31295939 8.67237409 -2 13 C-3.9375 12.3125 -3.9375 12.3125 -6 11 C-6.75 8.375 -6.75 8.375 -7 6 C-6.01 6 -5.02 6 -4 6 C-3.34 4.68 -2.68 3.36 -2 2 C-1.34 2 -0.68 2 0 2 C0 1.34 0 0.68 0 0 Z " fill="#EFE6E6" transform="translate(64,147)"/>
<path d="M0 0 C0.33 0 0.66 0 1 0 C1 2.31 1 4.62 1 7 C1.66 7 2.32 7 3 7 C3.33 5.68 3.66 4.36 4 3 C6.31 2.34 8.62 1.68 11 1 C10.2575 1.721875 9.515 2.44375 8.75 3.1875 C6.30404015 5.68904985 4.164517 8.25827847 2 11 C1.01 11.99 0.02 12.98 -1 14 C-0.67 9.38 -0.34 4.76 0 0 Z " fill="#F0D9DC" transform="translate(34,29)"/>
<path d="M0 0 C0.99 0 1.98 0 3 0 C1.27933894 5.44876003 -0.84705349 10.71169451 -3 16 C-3.66 15.67 -4.32 15.34 -5 15 C-5.73075648 12.6859378 -6.40138258 10.35171131 -7 8 C-6.01 8 -5.02 8 -4 8 C-2.7058258 6.77119784 -2.7058258 6.77119784 -1 4 C-0.34 4 0.32 4 1 4 C0.67 2.68 0.34 1.36 0 0 Z " fill="#E2223E" transform="translate(69,128)"/>
<path d="M0 0 C0.66 0 1.32 0 2 0 C4.08135307 5.29798964 5.71291613 10.45563871 7 16 C6.34 16 5.68 16 5 16 C3.96210419 14.35666496 2.96432076 12.68756133 2 11 C1.34 10.34 0.68 9.68 0 9 C-0.1953125 6.8359375 -0.1953125 6.8359375 -0.125 4.375 C-0.10695312 3.55773437 -0.08890625 2.74046875 -0.0703125 1.8984375 C-0.04710937 1.27195313 -0.02390625 0.64546875 0 0 Z " fill="#E42946" transform="translate(45,128)"/>
<path d="M0 0 C1.98 0 3.96 0 6 0 C7.28317892 3.84953676 7.06643637 6.94738135 7 11 C6.34 10.67 5.68 10.34 5 10 C5 8.68 5 7.36 5 6 C3.35 5.67 1.7 5.34 0 5 C-0.33 4.01 -0.66 3.02 -1 2 C-0.67 1.34 -0.34 0.68 0 0 Z " fill="#F4F9FA" transform="translate(154,104)"/>
<path d="M0 0 C0 3.47510501 -0.51551441 4.05363166 -2.6875 6.625 C-3.18636719 7.23601562 -3.68523437 7.84703125 -4.19921875 8.4765625 C-8.38512074 12.01778111 -13.67183288 10.99047899 -18.8125 10.5625 C-19.50537109 10.51029297 -20.19824219 10.45808594 -20.91210938 10.40429688 C-22.60854437 10.27560181 -24.30434863 10.13863816 -26 10 C-26 9.67 -26 9.34 -26 9 C-24.9378125 8.99742188 -23.875625 8.99484375 -22.78125 8.9921875 C-12.22475321 8.84037131 -12.22475321 8.84037131 -3.3828125 3.47265625 C-2.92648438 2.98667969 -2.47015625 2.50070313 -2 2 C-1.34 1.34 -0.68 0.68 0 0 Z " fill="#EDB9BF" transform="translate(154,79)"/>
<path d="M0 0 C0.66 0 1.32 0 2 0 C2 1.98 2 3.96 2 6 C1.34 6 0.68 6 0 6 C-1.80317221 9.96697886 -2.49202991 13.6822542 -3 18 C-3.99 18 -4.98 18 -6 18 C-5.57597164 12.91165974 -4.37679368 9.28087074 -1.9375 4.796875 C-0.86302477 2.85318414 -0.86302477 2.85318414 0 0 Z " fill="#E70E2F" transform="translate(77,122)"/>
<path d="M0 0 C6.52307692 0.61538462 6.52307692 0.61538462 8.9375 2.5625 C9.288125 3.036875 9.63875 3.51125 10 4 C8.68 3.67 7.36 3.34 6 3 C6 3.66 6 4.32 6 5 C5.01 5 4.02 5 3 5 C3 5.66 3 6.32 3 7 C2.01 7 1.02 7 0 7 C0 4.69 0 2.38 0 0 Z " fill="#E31635" transform="translate(92,136)"/>
<path d="M0 0 C0 3 0 3 -2 6 C2.95 5.67 7.9 5.34 13 5 C13 5.66 13 6.32 13 7 C6.07 7 -0.86 7 -8 7 C-8 6.34 -8 5.68 -8 5 C-7.236875 4.731875 -6.47375 4.46375 -5.6875 4.1875 C-3.12619116 3.05575888 -1.80307062 2.08776599 0 0 Z " fill="#E9B8BD" transform="translate(37,161)"/>
<path d="M0 0 C0.66 0.33 1.32 0.66 2 1 C1.67 2.32 1.34 3.64 1 5 C-0.32 5 -1.64 5 -3 5 C-3.12375 5.680625 -3.2475 6.36125 -3.375 7.0625 C-4.09100877 10.4277412 -5.02945125 13.70013425 -6 17 C-6.99 17 -7.98 17 -9 17 C-9 16.01 -9 15.02 -9 14 C-8.34 14 -7.68 14 -7 14 C-6.9175 13.13375 -6.835 12.2675 -6.75 11.375 C-5.69952939 6.64788227 -3.3985223 3.3985223 0 0 Z " fill="#E15B6D" transform="translate(123,106)"/>
<path d="M0 0 C3.42724441 5.14086661 3.1015597 10.00797796 3 16 C2 14 1 12 0 10 C-1.65 10.66 -3.3 11.32 -5 12 C-4.360625 11.13375 -3.72125 10.2675 -3.0625 9.375 C-1.02451704 6.0401188 -0.36566907 3.83952522 0 0 Z " fill="#EEC4C6" transform="translate(104,120)"/>
<path d="M0 0 C1.94950699 3.89901398 0.73598475 7.3360483 -0.5 11.25 C-0.7784375 12.14203125 -1.056875 13.0340625 -1.34375 13.953125 C-1.66859375 14.96632812 -1.66859375 14.96632812 -2 16 C-2.99 15.34 -3.98 14.68 -5 14 C-4.54636829 12.41531323 -4.08688548 10.83230076 -3.625 9.25 C-3.36976562 8.36828125 -3.11453125 7.4865625 -2.8515625 6.578125 C-2.0790066 4.23919428 -1.16374324 2.16557438 0 0 Z " fill="#E799A2" transform="translate(77,114)"/>
<path d="M0 0 C0.33 0.99 0.66 1.98 1 3 C0.67 3.66 0.34 4.32 0 5 C-0.66 5 -1.32 5 -2 5 C-1.979375 5.804375 -1.95875 6.60875 -1.9375 7.4375 C-2 10 -2 10 -3 11 C-4.66617115 11.04063832 -6.33388095 11.042721 -8 11 C-8 9.02 -8 7.04 -8 5 C-7.67 5 -7.34 5 -7 5 C-7 6.65 -7 8.3 -7 10 C-6.34 10 -5.68 10 -5 10 C-4.9175 9.278125 -4.835 8.55625 -4.75 7.8125 C-3.85249799 4.44686746 -2.2885722 2.58387184 0 0 Z " fill="#E0314D" transform="translate(39,35)"/>
<path d="M0 0 C3.96 0 7.92 0 12 0 C11.67 1.32 11.34 2.64 11 4 C11 3.01 11 2.02 11 1 C10.01 1 9.02 1 8 1 C7.67 1.66 7.34 2.32 7 3 C7 2.34 7 1.68 7 1 C6.34 1 5.68 1 5 1 C5 2.65 5 4.3 5 6 C2.5 4.6875 2.5 4.6875 0 3 C0 2.01 0 1.02 0 0 Z " fill="#F2E2E5" transform="translate(149,103)"/>
<path d="M0 0 C0 0.66 0 1.32 0 2 C0.66 2.66 1.32 3.32 2 4 C-5.26 4 -12.52 4 -20 4 C-20 3.67 -20 3.34 -20 3 C-19.03578125 2.95101562 -18.0715625 2.90203125 -17.078125 2.8515625 C-15.81484375 2.77679688 -14.5515625 2.70203125 -13.25 2.625 C-11.99703125 2.55539063 -10.7440625 2.48578125 -9.453125 2.4140625 C-6.03094546 2.00371065 -3.27747944 0 0 0 Z " fill="#F0D4D8" transform="translate(111,163)"/>
<path d="M0 0 C1.32 1.32 2.64 2.64 4 4 C3.67 4.99 3.34 5.98 3 7 C1.67696283 7.3721042 0.34262065 7.70630173 -1 8 C-1.33 8.66 -1.66 9.32 -2 10 C-2.66 10 -3.32 10 -4 10 C-3.52449439 8.51965236 -3.04448784 7.04074979 -2.5625 5.5625 C-2.29566406 4.73878906 -2.02882813 3.91507813 -1.75390625 3.06640625 C-1 1 -1 1 0 0 Z " fill="#E31B3B" transform="translate(70,140)"/>
<path d="M0 0 C0.66 0.33 1.32 0.66 2 1 C2.625 3.5625 2.625 3.5625 3 6 C-0.625 9 -0.625 9 -4 9 C-2.94124926 5.59687262 -1.99097846 2.98646769 0 0 Z " fill="#E71438" transform="translate(48,80)"/>
<path d="M0 0 C2.97 0.495 2.97 0.495 6 1 C6.125 3.375 6.125 3.375 6 6 C5.34 6.66 4.68 7.32 4 8 C3.30251417 9.31747324 2.63040043 10.64914193 2 12 C0.85110867 8.06094403 0.47417305 4.06434042 0 0 Z " fill="#E04259" transform="translate(137,40)"/>
<path d="M0 0 C6.27 0 12.54 0 19 0 C18.67 1.32 18.34 2.64 18 4 C17.071875 3.690625 16.14375 3.38125 15.1875 3.0625 C10.22128454 1.6216844 5.13794694 1.35305964 0 1 C0 0.67 0 0.34 0 0 Z " fill="#F2DDE0" transform="translate(128,26)"/>
<path d="M0 0 C5.40049736 0.31767632 7.52337065 3.19996327 11 7 C10.67 7.66 10.34 8.32 10 9 C6.125 7.25 6.125 7.25 5 5 C4.34 4.690625 3.68 4.38125 3 4.0625 C1 3 1 3 0 0 Z " fill="#E02241" transform="translate(147,106)"/>
<path d="M0 0 C0.99 0.33 1.98 0.66 3 1 C2.01 3.97 1.02 6.94 0 10 C-0.66 10 -1.32 10 -2 10 C-2.66 7.69 -3.32 5.38 -4 3 C-2.68 3.33 -1.36 3.66 0 4 C0 2.68 0 1.36 0 0 Z " fill="#F0DFE2" transform="translate(116,110)"/>
<path d="M0 0 C0.66 0.66 1.32 1.32 2 2 C1.77172097 3.98928868 1.53644751 5.97881184 1.2265625 7.95703125 C0.94773864 10.47125328 1.31802172 12.57518832 2 15 C-1.32604248 13.33697876 -1.80042476 10.37023519 -3 7 C-2.6875 4.5625 -2.6875 4.5625 -2 3 C-1.34 3.33 -0.68 3.66 0 4 C0 2.68 0 1.36 0 0 Z " fill="#E03351" transform="translate(56,112)"/>
<path d="M0 0 C0.33 0 0.66 0 1 0 C1 1.65 1 3.3 1 5 C0.34 5 -0.32 5 -1 5 C-0.67 6.65 -0.34 8.3 0 10 C-0.66 10 -1.32 10 -2 10 C-2.33 11.32 -2.66 12.64 -3 14 C-3.66 13.67 -4.32 13.34 -5 13 C-4.54803755 11.39402675 -4.08817673 9.79027492 -3.625 8.1875 C-3.36976562 7.29417969 -3.11453125 6.40085937 -2.8515625 5.48046875 C-2 3 -2 3 0 0 Z " fill="#ECC5CA" transform="translate(81,106)"/>
<path d="M0 0 C4.62 0 9.24 0 14 0 C14 0.33 14 0.66 14 1 C11.69 1.33 9.38 1.66 7 2 C7.33 3.32 7.66 4.64 8 6 C5.36 4.68 2.72 3.36 0 2 C0 1.34 0 0.68 0 0 Z " fill="#EBB5BD" transform="translate(29,102)"/>
<path d="M0 0 C0.99 0 1.98 0 3 0 C3 0.66 3 1.32 3 2 C4.32 2.33 5.64 2.66 7 3 C7 5.31 7 7.62 7 10 C6.34 10 5.68 10 5 10 C4.28385417 8.27473958 3.56770833 6.54947917 2.8515625 4.82421875 C1.93193308 2.73466068 1.93193308 2.73466068 0 0 Z " fill="#EED3D8" transform="translate(150,34)"/>
<path d="M0 0 C0.33 0 0.66 0 1 0 C1.22223194 2.74086056 1.34781139 4.43963721 -0.125 6.8125 C-2.77535957 8.49106106 -4.93246424 8.20450238 -8 8 C-8.33 9.32 -8.66 10.64 -9 12 C-9.33 10.35 -9.66 8.7 -10 7 C-6.68885166 5.87119943 -3.41021743 4.78697325 0 4 C0 2.68 0 1.36 0 0 Z " fill="#E41132" transform="translate(78,157)"/>
<path d="M0 0 C0.33 0 0.66 0 1 0 C1.04898438 1.10859375 1.09796875 2.2171875 1.1484375 3.359375 C1.22349215 4.82294065 1.29903881 6.28648112 1.375 7.75 C1.4059375 8.47960937 1.436875 9.20921875 1.46875 9.9609375 C1.6748494 13.73942656 1.91512843 16.77946668 4 20 C2.68 20 1.36 20 0 20 C0 13.4 0 6.8 0 0 Z " fill="#EEC1C4" transform="translate(40,144)"/>
<path d="M0 0 C3.65316671 1.24976756 4.78065836 1.67098753 7 5 C5.35 5.66 3.7 6.32 2 7 C1.01 5.02 0.02 3.04 -1 1 C-0.67 0.67 -0.34 0.34 0 0 Z " fill="#E51030" transform="translate(144,31)"/>
<path d="M0 0 C2.64 0 5.28 0 8 0 C8 0.99 8 1.98 8 3 C8.66 3 9.32 3 10 3 C9.67 3.99 9.34 4.98 9 6 C6.03 4.35 3.06 2.7 0 1 C0 0.67 0 0.34 0 0 Z " fill="#EFD4D7" transform="translate(70,26)"/>
<path d="M0 0 C0.99 0.33 1.98 0.66 3 1 C2.71890887 2.64767247 2.42481474 4.29313145 2.125 5.9375 C1.96257812 6.85402344 1.80015625 7.77054688 1.6328125 8.71484375 C1.42398438 9.46894531 1.21515625 10.22304687 1 11 C0.01 11.495 0.01 11.495 -1 12 C-0.67 8.04 -0.34 4.08 0 0 Z " fill="#E42742" transform="translate(122,156)"/>
<path d="M0 0 C1.04005702 3.38018531 1.08004482 6.4780279 1 10 C0.01 9.67 -0.98 9.34 -2 9 C-2 9.66 -2 10.32 -2 11 C-3.32 11 -4.64 11 -6 11 C-5.67 10.34 -5.34 9.68 -5 9 C-4.34 9.33 -3.68 9.66 -3 10 C-2.87625 9.278125 -2.7525 8.55625 -2.625 7.8125 C-2.0095069 5.04278106 -1.11555626 2.6029646 0 0 Z " fill="#E34A60" transform="translate(65,150)"/>
<path d="M0 0 C2.97 0 5.94 0 9 0 C8.01 1.485 8.01 1.485 7 3 C3.375 3.1875 3.375 3.1875 0 3 C0 2.01 0 1.02 0 0 Z " fill="#E31235" transform="translate(129,52)"/>
<path d="M0 0 C0.66 0 1.32 0 2 0 C1.49477778 4.37859255 -1.17827222 6.81651224 -4 10 C-4.33 9.01 -4.66 8.02 -5 7 C-4.67 6.34 -4.34 5.68 -4 5 C-3.34 5 -2.68 5 -2 5 C-2 4.34 -2 3.68 -2 3 C-1.34 3 -0.68 3 0 3 C0 2.01 0 1.02 0 0 Z " fill="#E02E47" transform="translate(156,72)"/>
<path d="M0 0 C0.33 0 0.66 0 1 0 C1.33 4.29 1.66 8.58 2 13 C1.34 13 0.68 13 0 13 C-0.66 10.69 -1.32 8.38 -2 6 C-1.67 6 -1.34 6 -1 6 C-0.67 4.02 -0.34 2.04 0 0 Z " fill="#E99DA6" transform="translate(144,60)"/>
<path d="M0 0 C3.375 -0.125 3.375 -0.125 7 0 C7.66 0.66 8.32 1.32 9 2 C6.03 2.66 3.06 3.32 0 4 C0 2.68 0 1.36 0 0 Z " fill="#EF032A" transform="translate(96,106)"/>
<path d="M0 0 C1.65 0 3.3 0 5 0 C5.33 1.32 5.66 2.64 6 4 C6.66 4 7.32 4 8 4 C8 5.65 8 7.3 8 9 C7.4225 8.2575 6.845 7.515 6.25 6.75 C4.27746474 4.33912357 2.23955718 2.15957299 0 0 Z " fill="#DD3A53" transform="translate(43,102)"/>
<path d="M0 0 C0.33 0.66 0.66 1.32 1 2 C1.825 2.165 2.65 2.33 3.5 2.5 C4.325 2.665 5.15 2.83 6 3 C6.33 3.66 6.66 4.32 7 5 C3.98968256 5.93423645 3.13349732 6.04449911 0 5 C0 3.35 0 1.7 0 0 Z " fill="#DF203C" transform="translate(28,102)"/>
<path d="M0 0 C0.99 0 1.98 0 3 0 C2.67 2.97 2.34 5.94 2 9 C0.4375 7.3125 0.4375 7.3125 -1 5 C-0.6875 2.25 -0.6875 2.25 0 0 Z " fill="#E7818A" transform="translate(121,147)"/>
<path d="M0 0 C0.95904856 3.83619425 0.91892116 5.32431536 0 9 C-1.32 8.67 -2.64 8.34 -4 8 C-2.68 5.36 -1.36 2.72 0 0 Z " fill="#F4E7E7" transform="translate(84,80)"/>
<path d="M0 0 C0.66 0 1.32 0 2 0 C2 1.65 2 3.3 2 5 C0.68 5.33 -0.64 5.66 -2 6 C-1.125 1.125 -1.125 1.125 0 0 Z " fill="#E31631" transform="translate(42,32)"/>
<path d="M0 0 C0.33 0 0.66 0 1 0 C1.33 2.97 1.66 5.94 2 9 C1.34 9 0.68 9 0 9 C-0.66 6.69 -1.32 4.38 -2 2 C-1.34 1.34 -0.68 0.68 0 0 Z " fill="#EBA7AF" transform="translate(107,141)"/>
<path d="M0 0 C0.99 0 1.98 0 3 0 C2.34 1.98 1.68 3.96 1 6 C0.34 6 -0.32 6 -1 6 C-1.625 4.125 -1.625 4.125 -2 2 C-1.34 1.34 -0.68 0.68 0 0 Z " fill="#E50C2D" transform="translate(71,122)"/>
<path d="M0 0 C0.99 0 1.98 0 3 0 C3 1.65 3 3.3 3 5 C4.65 5 6.3 5 8 5 C8 5.33 8 5.66 8 6 C5.125 6.1875 5.125 6.1875 2 6 C0 3 0 3 0 0 Z " fill="#E21835" transform="translate(95,82)"/>
<path d="M0 0 C2.31 0.66 4.62 1.32 7 2 C7.33 1.34 7.66 0.68 8 0 C8.66 0.99 9.32 1.98 10 3 C6.37 3 2.74 3 -1 3 C-0.67 2.01 -0.34 1.02 0 0 Z " fill="#F5EDEE" transform="translate(36,164)"/>
<path d="M0 0 C0.91058531 3.07322544 1.08886184 5.80097361 1 9 C0.01 9 -0.98 9 -2 9 C-1.125 2.25 -1.125 2.25 0 0 Z " fill="#E32640" transform="translate(73,131)"/>
<path d="M0 0 C1.0326802 2.78823655 1.04509293 3.8677274 0.0625 6.75 C-0.288125 7.4925 -0.63875 8.235 -1 9 C-1.66 9 -2.32 9 -3 9 C-2.5020163 5.26512223 -2.12508244 3.18762365 0 0 Z " fill="#F1CBCE" transform="translate(73,127)"/>
<path d="M0 0 C3.26954202 0.56371414 4.82575883 1.49962266 7 4 C6.01 4 5.02 4 4 4 C3.67 4.66 3.34 5.32 3 6 C2.34 6 1.68 6 1 6 C1.33 4.35 1.66 2.7 2 1 C1.34 0.67 0.68 0.34 0 0 Z " fill="#E22842" transform="translate(103,106)"/>
<path d="M0 0 C0.66 0 1.32 0 2 0 C2 2.64 2 5.28 2 8 C1.01 7.34 0.02 6.68 -1 6 C-0.67 4.02 -0.34 2.04 0 0 Z " fill="#F6F8F9" transform="translate(140,50)"/>
<path d="M0 0 C2.60018816 3.90028225 2.15085514 7.47434569 2 12 C1.67 10.68 1.34 9.36 1 8 C0.34 8 -0.32 8 -1 8 C-0.67 5.36 -0.34 2.72 0 0 Z " fill="#EBCBCB" transform="translate(141,42)"/>
<path d="M0 0 C0.33 0 0.66 0 1 0 C1 1.98 1 3.96 1 6 C0.01 6.33 -0.98 6.66 -2 7 C-2.66 6.34 -3.32 5.68 -4 5 C-2.68 4.34 -1.36 3.68 0 3 C0 2.01 0 1.02 0 0 Z " fill="#EDD3D7" transform="translate(53,82)"/>
<path d="M0 0 C1.32 1.32 2.64 2.64 4 4 C3.67 4.99 3.34 5.98 3 7 C2.34 6.34 1.68 5.68 1 5 C0.01 5.495 0.01 5.495 -1 6 C-0.67 4.02 -0.34 2.04 0 0 Z " fill="#E02744" transform="translate(151,36)"/>
</svg>
